<?xml version="1.0" standalone="no"?>
<!DOCTYPE svg PUBLIC "-//W3C//DTD SVG 20010904//EN"
 "http://www.w3.org/TR/2001/REC-SVG-20010904/DTD/svg10.dtd">
<svg version="1.0" xmlns="http://www.w3.org/2000/svg"
 width="500.000000pt" height="116.000000pt" viewBox="0 0 500.000000 116.000000"
 preserveAspectRatio="xMidYMid meet">

<g transform="translate(0.000000,116.000000) scale(0.100000,-0.100000)"
fill="#000000" stroke="none">
<path d="M445 1001 c-257 -6 -272 -7 -306 -28 -54 -34 -75 -97 -46 -137 11
-15 12 -12 9 22 -3 33 1 45 26 73 l30 34 141 3 141 4 0 -291 c0 -317 -3 -335
-54 -350 -23 -7 -1 -9 79 -9 61 1 100 3 89 5 -12 2 -30 13 -40 25 -17 18 -19
44 -22 319 l-3 299 110 0 c102 0 111 -2 125 -22 16 -22 16 -21 16 20 0 28 -4
41 -12 40 -7 -1 -134 -4 -283 -7z"/>
<path d="M2060 999 c-63 -26 -100 -85 -100 -157 0 -64 14 -80 155 -193 122
-96 155 -141 155 -212 0 -147 -174 -227 -298 -137 -73 53 -90 147 -42 241 28
54 17 49 -16 -7 -31 -52 -37 -139 -14 -184 68 -132 268 -160 372 -53 45 47 58
79 58 146 0 53 -23 113 -57 153 -10 12 -65 59 -123 104 -127 101 -139 115
-140 162 0 77 41 120 116 120 54 0 89 -21 109 -65 14 -32 14 -31 8 23 -3 30
-6 56 -7 57 -6 9 -156 11 -176 2z"/>
<path d="M3372 994 c-103 -27 -176 -85 -219 -171 -38 -80 -45 -212 -14 -294
30 -79 88 -141 169 -181 63 -31 72 -33 177 -33 100 0 116 3 173 29 80 37 153
115 178 188 28 83 23 201 -11 277 -30 66 -88 127 -152 159 -82 42 -204 52
-301 26z m241 -37 c62 -26 130 -102 153 -170 25 -73 23 -196 -5 -267 -25 -66
-84 -130 -150 -162 -57 -28 -185 -30 -244 -4 -54 24 -114 82 -145 140 -25 47
-27 61 -27 166 0 101 3 120 24 160 77 148 237 203 394 137z"/>
<path d="M4031 997 c-45 -16 -91 -74 -98 -125 -10 -72 9 -103 138 -224 131
-123 147 -150 129 -217 -20 -75 -109 -119 -181 -88 -45 19 -68 46 -83 98 l-13
43 -7 -47 c-4 -26 -5 -56 -1 -66 8 -28 69 -53 141 -59 117 -9 195 54 198 161
0 29 -5 66 -12 83 -7 17 -61 75 -120 129 -131 120 -146 142 -139 196 10 72 79
118 148 99 40 -12 59 -28 75 -65 13 -29 13 -29 14 26 l0 56 -52 7 c-72 8 -97
7 -137 -7z"/>
<path d="M4520 1003 c-182 -3 -184 -4 -150 -21 l35 -17 3 -294 c3 -317 0 -334
-50 -344 -13 -2 67 -4 177 -3 l200 1 22 60 c29 79 28 89 -2 39 -35 -59 -73
-74 -189 -74 l-96 0 0 145 0 145 94 0 c97 0 109 -5 119 -45 2 -11 5 16 5 60 0
44 -3 71 -5 60 -10 -40 -22 -45 -119 -45 l-94 0 0 150 0 150 108 0 c112 0 122
-3 140 -35 10 -17 11 -13 12 28 0 32 -4 46 -12 45 -7 -2 -96 -4 -198 -5z"/>
<path d="M1126 993 c12 -2 30 -13 40 -25 18 -19 19 -42 19 -308 0 -266 -1
-289 -19 -308 -10 -12 -28 -23 -40 -25 -11 -2 29 -4 89 -5 80 0 102 2 79 9
-51 15 -54 33 -54 349 l0 290 78 0 c97 0 132 -19 157 -84 46 -121 -22 -225
-150 -227 -27 0 -44 -3 -38 -6 7 -2 89 -89 182 -191 92 -103 187 -204 211
-225 65 -60 133 -87 210 -86 60 1 62 2 27 10 -102 24 -161 71 -364 293 l-155
169 51 24 c69 33 104 92 104 172 0 94 -43 149 -134 170 -24 6 -105 10 -179 9
-74 0 -125 -3 -114 -5z"/>
<path d="M2420 987 c48 -24 50 -41 48 -338 -3 -254 -5 -279 -22 -297 -10 -12
-28 -23 -40 -25 -11 -2 29 -4 89 -5 85 0 103 2 77 9 -45 13 -52 38 -52 185 l0
124 200 0 200 0 0 -138 c0 -148 -5 -163 -55 -175 -11 -2 30 -5 90 -5 85 0 103
2 77 9 -21 6 -36 19 -42 35 -6 14 -10 148 -10 297 0 293 2 306 54 327 14 6
-16 9 -84 8 -58 0 -96 -3 -85 -5 51 -13 55 -26 55 -180 l0 -143 -200 0 -200 0
0 133 c0 142 8 169 54 187 14 6 -12 9 -79 9 -87 1 -97 -1 -75 -12z"/>
<path d="M760 600 c0 -19 7 -20 145 -20 138 0 145 1 145 20 0 19 -7 20 -145
20 -138 0 -145 -1 -145 -20z"/>
</g>
</svg>
