<?xml version="1.0" standalone="no"?>
<!DOCTYPE svg PUBLIC "-//W3C//DTD SVG 20010904//EN"
 "http://www.w3.org/TR/2001/REC-SVG-20010904/DTD/svg10.dtd">
<svg version="1.0" xmlns="http://www.w3.org/2000/svg"
 width="500.000000pt" height="500.000000pt" viewBox="0 0 500.000000 500.000000"
 preserveAspectRatio="xMidYMid meet">

<g transform="translate(0.000000,500.000000) scale(0.100000,-0.100000)"
fill="#000000" stroke="none">
<path d="M2395 4243 c-87 -8 -262 -46 -363 -79 -136 -44 -424 -184 -551 -267
-316 -207 -539 -489 -671 -846 -35 -96 -37 -111 -11 -111 13 0 20 10 25 31 11
57 97 248 153 342 82 136 198 280 288 357 25 21 24 19 -8 -20 -125 -152 -258
-390 -315 -565 -46 -139 -47 -145 -19 -145 20 0 25 8 36 53 59 238 239 538
439 735 215 209 386 300 684 363 82 18 139 22 283 23 206 1 269 -5 413 -40
203 -50 404 -141 569 -257 117 -83 313 -279 389 -392 68 -100 155 -257 178
-323 l15 -43 -26 3 c-34 4 -40 -17 -23 -78 l13 -44 68 0 c69 0 82 7 55 30 -8
6 -23 33 -32 58 -49 134 -86 210 -175 362 -103 174 -336 406 -523 519 -303
185 -654 277 -976 256 -58 -3 -102 -4 -99 -1 15 15 220 36 357 36 315 1 577
-71 849 -234 147 -88 192 -122 312 -239 104 -101 182 -198 257 -319 53 -86 58
-99 65 -175 11 -103 27 -143 73 -179 26 -20 40 -42 48 -71 8 -32 15 -43 30
-43 14 0 18 5 14 18 -27 95 -36 158 -40 292 -5 172 -21 245 -51 245 -14 0 -22
-15 -36 -64 -10 -35 -20 -65 -22 -68 -3 -2 -22 24 -43 59 -307 512 -878 833
-1469 826 -66 -1 -138 -3 -160 -5z"/>
<path d="M1480 3475 c0 -11 12 -15 44 -15 62 0 145 -45 172 -94 l21 -37 13 31
c19 46 70 80 139 93 37 7 61 17 61 24 0 10 -50 13 -225 13 -193 0 -225 -2
-225 -15z"/>
<path d="M2180 3476 c0 -8 16 -16 43 -19 58 -8 96 -23 103 -42 15 -39 -96
-187 -283 -377 l-96 -98 36 0 c41 0 63 21 315 300 72 80 145 156 162 168 36
27 102 52 136 52 15 0 24 6 24 15 0 13 -31 15 -220 15 -179 0 -220 -3 -220
-14z"/>
<path d="M1570 3367 c0 -60 30 -137 74 -192 l43 -52 -4 71 c-2 39 -6 81 -9 94
-5 24 -80 112 -95 112 -5 0 -9 -15 -9 -33z"/>
<path d="M1741 3324 c-25 -54 -26 -135 -2 -181 11 -23 25 -44 30 -47 14 -9 34
90 27 137 -4 23 -15 60 -24 81 l-17 39 -14 -29z"/>
<path d="M3105 3128 c-165 -208 -153 -188 -111 -188 32 0 41 8 145 140 62 77
114 146 117 153 2 7 -3 21 -14 30 -17 15 -24 9 -137 -135z"/>
<path d="M4396 3178 c-30 -40 -136 -219 -136 -230 0 -4 31 -8 70 -8 l70 0 30
60 c32 63 40 134 20 184 -13 34 -24 33 -54 -6z"/>
<path d="M1816 3108 c-25 -36 -21 -51 9 -32 14 9 25 25 25 35 0 25 -15 24 -34
-3z"/>
<path d="M1576 3101 c-9 -14 4 -39 23 -44 13 -3 17 1 15 17 -1 12 -3 24 -3 29
-1 10 -29 9 -35 -2z"/>
<path d="M1621 3035 c0 -5 11 -30 24 -55 13 -25 24 -40 24 -35 0 6 -11 30 -24
55 -13 25 -24 41 -24 35z"/>
<path d="M1770 3021 c-5 -11 -9 -35 -9 -53 l1 -33 8 35 c4 19 11 43 15 53 10
23 -2 22 -15 -2z"/>
<path d="M1722 3010 c0 -14 2 -19 5 -12 2 6 2 18 0 25 -3 6 -5 1 -5 -13z"/>
<path d="M1837 2992 c-16 -24 -26 -46 -24 -49 3 -2 18 -3 34 -1 27 3 28 5 23
48 l-5 45 -28 -43z"/>
<path d="M1570 2963 c0 -13 5 -23 10 -23 13 0 13 11 0 30 -8 12 -10 11 -10 -7z"/>
<path d="M1731 2954 c0 -11 3 -14 6 -6 3 7 2 16 -1 19 -3 4 -6 -2 -5 -13z"/>
<path d="M395 2701 c-88 -3 -166 -10 -173 -14 -21 -14 -33 -56 -22 -75 8 -14
9 -13 10 9 0 44 28 59 108 59 l72 0 0 -170 c0 -150 -2 -170 -17 -179 -14 -8
-3 -10 42 -10 46 0 55 2 38 9 -23 9 -23 12 -23 180 l0 170 60 0 c46 0 61 -4
69 -17 9 -15 10 -12 11 15 0 17 -3 31 -7 30 -5 -1 -80 -4 -168 -7z"/>
<path d="M711 2695 c-83 -26 -131 -93 -131 -184 0 -82 35 -141 105 -179 40
-21 160 -21 200 0 39 21 81 66 94 101 14 36 14 118 0 154 -17 46 -69 92 -123
108 -60 18 -87 18 -145 0z m143 -19 c18 -8 46 -31 62 -52 26 -34 29 -45 29
-115 0 -63 -4 -83 -21 -105 -40 -54 -70 -69 -139 -69 -68 0 -99 15 -138 67
-22 29 -33 108 -23 162 18 97 133 153 230 112z"/>
<path d="M1820 2700 c-58 -3 -97 -8 -87 -12 15 -7 17 -25 17 -177 0 -151 -2
-171 -17 -180 -13 -8 13 -10 94 -11 l111 0 11 31 c6 18 11 33 11 35 0 2 -11
-8 -25 -21 -20 -21 -34 -25 -85 -25 l-60 0 0 80 0 80 48 0 c26 0 53 -5 60 -12
9 -9 12 -7 12 13 0 23 -2 24 -60 21 l-60 -4 0 81 0 81 65 0 c50 0 66 -4 74
-17 9 -16 10 -14 11 9 0 15 -3 28 -7 30 -5 2 -55 1 -113 -2z"/>
<path d="M2059 2695 c-32 -17 -54 -66 -45 -101 4 -14 38 -56 76 -92 63 -58 70
-69 70 -103 0 -28 -6 -42 -22 -53 -43 -31 -100 -15 -120 32 -11 27 -12 27 -16
4 -6 -37 4 -50 48 -62 81 -22 145 18 145 90 0 35 -8 47 -78 118 -47 49 -77 88
-77 101 0 50 73 79 112 44 17 -15 18 -15 18 4 0 15 -9 22 -31 27 -43 8 -50 7
-80 -9z"/>
<path d="M2968 2696 c-60 -21 -84 -42 -107 -89 -41 -85 -18 -209 49 -257 44
-31 117 -44 168 -31 65 18 102 57 108 111 4 44 4 44 -7 11 -23 -74 -71 -111
-146 -111 -90 0 -153 74 -153 180 0 107 63 180 156 180 47 0 102 -32 121 -70
l13 -25 0 25 c0 40 -25 66 -74 79 -57 14 -82 13 -128 -3z"/>
<path d="M1048 2684 c21 -15 22 -21 22 -172 0 -159 -3 -174 -30 -185 -8 -3 12
-5 45 -5 33 0 53 2 45 5 -27 11 -30 27 -30 191 l0 162 48 0 c57 0 80 -19 89
-73 5 -31 1 -40 -25 -67 -21 -20 -41 -30 -64 -31 -18 -1 -26 -3 -17 -6 9 -2
41 -38 70 -79 56 -79 89 -104 136 -104 l28 1 -30 13 c-17 7 -55 46 -88 90 -47
62 -54 76 -38 76 24 0 57 41 66 80 8 38 -18 94 -51 109 -14 6 -64 11 -112 11
-81 0 -85 -1 -64 -16z"/>
<path d="M1380 2693 c27 -11 30 -27 30 -191 0 -159 0 -163 -22 -172 -18 -7
-10 -9 35 -9 l57 -1 -20 20 c-18 18 -20 33 -20 180 l0 160 49 0 c42 0 53 -4
70 -26 48 -61 7 -142 -72 -145 -12 0 -16 -3 -9 -6 7 -2 32 -32 56 -66 61 -85
87 -107 132 -112 21 -3 32 -2 24 1 -24 11 -59 45 -106 106 -48 61 -51 68 -31
68 21 0 56 43 63 78 4 18 1 45 -6 62 -19 47 -56 60 -157 59 -48 0 -81 -3 -73
-6z"/>
<path d="M2360 2693 c27 -11 30 -27 30 -191 0 -159 0 -163 -22 -172 -18 -7
-10 -9 35 -9 l57 -1 -20 20 c-18 18 -20 33 -20 180 l0 160 49 0 c71 0 100 -35
87 -106 -7 -35 -29 -53 -78 -63 -26 -6 -24 -9 82 -126 115 -127 168 -165 229
-164 l36 0 -37 14 c-55 20 -90 49 -183 153 -84 92 -97 112 -72 112 21 0 56 43
63 78 4 18 1 45 -6 62 -19 47 -56 60 -157 59 -48 0 -81 -3 -73 -6z"/>
<path d="M2690 2693 c27 -11 30 -27 30 -191 0 -159 0 -163 -22 -172 -18 -7
-10 -9 35 -9 l57 -1 -20 20 c-18 18 -20 33 -20 170 0 137 2 152 20 170 l20 20
-57 -1 c-32 0 -51 -3 -43 -6z"/>
<path d="M3240 2693 c27 -11 30 -27 30 -191 0 -159 0 -163 -22 -172 -18 -7 -9
-9 37 -9 57 -1 58 0 37 15 -19 13 -22 24 -22 90 l0 74 115 0 115 0 0 -74 c0
-66 -3 -77 -22 -90 -21 -15 -20 -16 37 -15 33 0 53 3 45 6 -27 11 -30 26 -30
183 0 157 3 172 30 183 8 3 -12 6 -45 6 -57 1 -58 0 -37 -15 19 -13 22 -24 22
-90 l0 -74 -115 0 -115 0 0 70 c0 57 4 74 20 90 l20 20 -57 -1 c-32 0 -51 -3
-43 -6z"/>
<path d="M3729 2523 c-58 -138 -80 -180 -99 -190 -23 -12 -21 -13 30 -13 37 0
50 3 41 9 -13 8 -12 17 4 65 l19 56 76 0 77 0 19 -56 c16 -48 17 -56 4 -64
-10 -7 4 -10 45 -9 44 0 54 3 39 9 -20 8 -48 66 -157 333 -9 20 -18 37 -20 37
-2 0 -38 -80 -78 -177z m105 33 c14 -37 26 -72 26 -77 0 -5 -27 -9 -60 -9 -33
0 -60 4 -60 9 0 5 7 25 15 45 8 20 22 52 30 73 8 20 17 34 19 32 2 -2 16 -35
30 -73z"/>
<path d="M4020 2693 c27 -11 30 -27 30 -191 0 -159 0 -163 -22 -172 -18 -7
-10 -9 35 -9 l57 -1 -20 20 c-18 18 -20 33 -20 180 l0 160 49 0 c42 0 53 -4
70 -26 48 -61 7 -142 -72 -145 -12 0 -16 -3 -9 -6 7 -2 32 -32 56 -66 61 -85
87 -107 132 -112 21 -3 32 -2 24 1 -24 11 -59 45 -106 106 -48 61 -51 68 -31
68 21 0 56 43 63 78 4 18 1 45 -6 62 -19 47 -56 60 -157 59 -48 0 -81 -3 -73
-6z"/>
<path d="M4373 2689 c15 -9 17 -29 17 -179 0 -150 -2 -170 -17 -179 -13 -8 14
-10 97 -10 157 -1 207 23 245 112 20 49 19 113 -4 162 -38 82 -89 104 -246
104 -79 0 -105 -2 -92 -10z m245 -29 c41 -25 72 -89 72 -150 0 -61 -31 -125
-72 -150 -26 -15 -50 -20 -110 -20 l-78 0 0 170 0 170 78 0 c60 0 84 -5 110
-20z"/>
<path d="M523 1984 c-15 -39 34 -39 67 0 11 14 8 16 -24 16 -24 0 -39 -5 -43
-16z"/>
<path d="M790 1988 c0 -8 9 -42 21 -75 l20 -61 -24 -49 c-29 -57 -57 -147 -57
-182 0 -23 7 -19 61 42 33 37 65 67 69 67 5 0 25 -28 44 -62 l35 -63 -15 -60
c-14 -60 -11 -125 6 -125 5 0 19 18 30 39 11 22 24 42 29 45 5 4 44 -34 85
-83 127 -150 279 -280 421 -360 56 -32 19 -1 -94 78 -105 73 -242 206 -326
316 -57 74 -58 76 -47 113 13 43 8 85 -16 126 -24 42 -39 42 -46 2 -4 -20 -11
-38 -16 -41 -9 -5 -60 83 -60 104 0 14 62 101 71 101 4 0 33 -48 64 -107 128
-246 330 -473 552 -620 170 -112 374 -209 373 -177 -1 5 -54 35 -119 67 -116
56 -266 148 -333 203 -82 68 -260 258 -316 336 -62 89 -96 147 -90 154 3 2 20
-7 38 -21 44 -33 118 -61 130 -49 9 10 -32 75 -93 148 -25 30 -56 52 -101 72
-61 26 -67 31 -87 81 -15 39 -27 53 -41 53 -15 0 -18 -5 -13 -22 4 -13 8 -27
9 -32 0 -5 -18 -22 -42 -39 -51 -34 -59 -30 -83 40 -15 45 -39 70 -39 41z"/>
<path d="M1105 1950 c94 -97 133 -98 98 -4 l-19 49 -64 3 -65 3 50 -51z"/>
<path d="M2010 1743 c-187 -236 -201 -257 -184 -270 10 -7 21 -13 25 -13 7 0
403 495 423 528 5 9 -2 12 -27 12 -32 0 -43 -11 -237 -257z"/>
<path d="M2875 1838 c-211 -233 -230 -249 -325 -269 -27 -6 -50 -16 -50 -22 0
-9 59 -12 220 -13 171 0 220 2 220 12 0 7 -24 18 -56 25 -31 7 -66 20 -77 29
l-20 17 21 45 c12 24 66 95 120 157 53 62 110 129 125 147 l29 34 -30 0 c-26
0 -49 -21 -177 -162z"/>
<path d="M3401 1984 c0 -11 3 -14 6 -6 3 7 2 16 -1 19 -3 4 -6 -2 -5 -13z"/>
<path d="M3965 1988 c-114 -341 -291 -600 -554 -813 -81 -65 -94 -82 -25 -33
118 84 252 215 351 343 97 125 253 434 253 500 0 18 -19 20 -25 3z"/>
<path d="M4125 1962 c0 -51 -115 -280 -200 -397 -172 -239 -372 -409 -645
-548 -121 -61 -119 -68 3 -12 219 99 447 277 598 464 108 134 259 402 284 504
6 24 4 27 -17 27 -21 0 -23 -5 -23 -38z"/>
<path d="M3303 1956 c-18 -18 -33 -38 -33 -45 0 -15 27 -14 37 2 7 10 33 78
29 76 0 0 -16 -15 -33 -33z"/>
<path d="M3345 1945 c-14 -84 -11 -196 7 -235 l16 -35 17 39 c24 55 24 136 0
172 -10 16 -22 47 -25 69 l-6 40 -9 -50z"/>
<path d="M3506 1960 c8 -41 18 -55 33 -46 17 11 13 46 -6 53 -10 4 -21 11 -25
17 -5 6 -5 -5 -2 -24z"/>
<path d="M3430 1905 c6 -15 10 -55 10 -91 0 -75 12 -104 69 -159 l41 -39 0 45
c0 70 -23 132 -69 186 -22 27 -41 54 -41 61 0 6 -4 14 -10 17 -7 4 -7 -3 0
-20z"/>
<path d="M3389 1657 c-21 -44 -66 -72 -138 -86 -36 -7 -61 -17 -61 -25 0 -9
51 -12 225 -12 169 0 225 3 225 12 0 7 -26 16 -62 23 -72 13 -130 48 -149 90
-8 17 -16 31 -19 31 -3 0 -12 -15 -21 -33z"/>
</g>
</svg>
