<svg id="Capa_1" data-name="Capa 1" xmlns="http://www.w3.org/2000/svg" viewBox="0 0 265.65 318.19"><defs><style>.cls-1{fill:#1d1d1b;}.cls-2{fill:#f8f7f7;}</style></defs><path class="cls-1" d="M418,144.58c-1.82,0-3.57.17-5.26.36a.51.51,0,0,1-.3,0,50.3,50.3,0,0,0-22.7-4.32c-39.76.93-49.21,40-50.39,45.77a.59.59,0,0,0,.59.71h10.89a.59.59,0,0,0,.59-.48c.78-4.08,7.3-32.48,37.56-33.87.83,0,1.62-.05,2.42,0-17.77,12-22.93,33.49-23.79,37.68a.59.59,0,0,0,.59.71h10.9a.61.61,0,0,0,.59-.48c.71-3.71,6.2-27.65,30.12-32.9a.65.65,0,0,1,.47.09c12,7.59,15.19,21.28,15.74,24.19a.6.6,0,0,0,.66.49l11.44-1.37a.62.62,0,0,0,.52-.71,56.15,56.15,0,0,0-9.32-21.43A.6.6,0,0,1,430,158c19.17,5.27,23.65,24.48,24.31,28a.6.6,0,0,0,.66.48l11.44-1.37a.6.6,0,0,0,.52-.71C466,179.19,457.84,143.64,418,144.58Z" transform="translate(-266.54 -140.56)"/><path d="M500,180.22l-.73.27a4.89,4.89,0,0,1-2.88.18L486,178.16a4.92,4.92,0,0,0-1.43-.13L295.45,188.82a4.92,4.92,0,0,0-4.62,4.45q-9.15,94.92-18.29,189.86c-1.66,18-4.18,37.93-6,56.25a4.92,4.92,0,0,0,4.45,5.4c13,1.17,26.61,1,39.42,2.51l168.21,11.45a4.93,4.93,0,0,0,4.18-1.84L508,425.4a4.91,4.91,0,0,1,3.84-1.85h15.39a4.92,4.92,0,0,0,4.89-5.46l-25.49-233.8A4.93,4.93,0,0,0,500,180.22ZM482.52,432.76,487.12,192a4.93,4.93,0,0,1,7.21-4.28h0a4.94,4.94,0,0,1,2.64,4.21l7.43,224.35a5,5,0,0,1-.95,3.07l-12,16.41A4.92,4.92,0,0,1,482.52,432.76Z" transform="translate(-266.54 -140.56)"/><polygon class="cls-2" points="127.02 176.81 116.11 175.42 109.25 199.42 105.79 211.53 103.57 219.3 100.19 231.13 92.12 259.38 103.2 260.16 111.05 232.71 114.54 220.5 116.86 212.38 120.55 199.45 127.02 176.81"/><path class="cls-2" d="M451.64,284.68l-11.56-.61-7.64-.39-12-.63-16-.84-11.14-.58-3.67,12.83-1.4,4.9-17.56-.92,0,.56-1.21-.09-9.84,34.43c-11.19-7.9-18.6-21.62-18.6-37.25,0-24.48,18.19-44.33,40.64-44.33,12.45,0,23.6,6.12,31.05,15.75v0l8.76-8.14c-9.57-12.31-23.84-20.14-39.8-20.14-28.81,0-52.16,25.47-52.16,56.89,0,21.29,10.72,39.83,26.59,49.59l-2.25,7.87C334.85,342.65,322,321,322,296.09c0-35.88,26.66-65,59.56-65,18.21,0,34.51,8.93,45.43,23l8.6-8c-13-16.71-32.37-27.32-54-27.32-39.14,0-70.87,34.61-70.87,77.3,0,30.47,16.16,56.81,39.64,69.4l-13.47,47.13h11.31l12.21-42.73,3.37-11.78,2.2-7.71,3.43-12,7.6-26.59L418.73,314a43,43,0,0,1-19.58,22.08,38.83,38.83,0,0,1-5.59,2.39h0l-4,13.86a48.22,48.22,0,0,0,9.83-2.75c14.73-5.85,26.35-18.75,31.46-34.95a61.24,61.24,0,0,0,2.59-12.89l-11.53-.6-22.63-1.19,1.4-4.89,21.5,1.12,11.5.6,7.39.39c-.42,28.57-17.73,52.65-41.52,60.88a55.49,55.49,0,0,1-12.42,2.74l-3.62,12.57a65.65,65.65,0,0,0,16.28-2.55c29.82-8.65,51.9-38,52.57-73.05,0-.56,0-1.1,0-1.66A85.63,85.63,0,0,0,451.64,284.68Z" transform="translate(-266.54 -140.56)"/></svg>