<svg id="Capa_1" data-name="Capa 1" xmlns="http://www.w3.org/2000/svg" viewBox="0 0 568.82 182.51"><defs><style>.cls-1{font-size:144.4px;fill:#1d1d1b;font-family:Athletic;}</style></defs><text class="cls-1" transform="translate(0 164.17) scale(1.43 1)">STORE</text><path d="M429.17,375.79q-8.31,0-12.78-5.14t-4.47-15.49q0-10.4,4.69-15.51t12.88-5.11a20.26,20.26,0,0,1,8.18,1.56,12.76,12.76,0,0,1,5.66,4.74,14.31,14.31,0,0,1,2.07,8h-5.75c0-3.33-.93-5.76-2.81-7.29a11.26,11.26,0,0,0-7.35-2.3,10.74,10.74,0,0,0-8.56,3.6q-3.14,3.62-3.13,10.87v2.9c0,4.85,1,8.47,2.94,10.87s4.77,3.6,8.43,3.6,6.33-.94,8-2.82,2.49-4.71,2.49-8.51v-3.08l2.37,2.15H428.28v-4.47H445.4v20.74h-3.7l-1.22-4.42a11.76,11.76,0,0,1-4.85,3.9A16.46,16.46,0,0,1,429.17,375.79Z" transform="translate(-399.18 -334.54)"/><path d="M519.15,375.09l13.94-39.86h7.22l13.93,39.86h-6.07l-3-8.89H527.78l-3,8.89Zm10.17-13.54h14.25l-6-17.72c-.12-.46-.27-1-.44-1.74s-.36-1.59-.58-2.67h-.25c-.22,1.12-.4,2-.55,2.73a10.78,10.78,0,0,1-.48,1.68Z" transform="translate(-399.18 -334.54)"/><path d="M628.31,375.09V335.23H646q6.45,0,9.78,3A11.19,11.19,0,0,1,657,352.69a11.18,11.18,0,0,1-5.75,3.87l8.82,18.53h-6.26l-8.12-17.61H633.93v17.61Zm5.62-22.25h11.83a7.81,7.81,0,0,0,5.4-1.8,6.09,6.09,0,0,0,2-4.77,5.94,5.94,0,0,0-1.92-4.67,7.92,7.92,0,0,0-5.49-1.72H633.93Z" transform="translate(-399.18 -334.54)"/><path d="M751.27,375.79q-8.5,0-12.88-5.14T734,355.16q0-10.4,4.38-15.51t12.88-5.11a18.15,18.15,0,0,1,7.92,1.65,12.2,12.2,0,0,1,5.4,5,16.56,16.56,0,0,1,1.95,8.45h-5.75c0-3.48-.86-6.09-2.59-7.81a9.33,9.33,0,0,0-6.93-2.59q-5.74,0-8.56,3.6t-2.82,10.87v2.9q0,7.27,2.82,10.87t8.56,3.6a9.72,9.72,0,0,0,7.06-2.56c1.77-1.7,2.65-4.28,2.65-7.72h5.56a16.56,16.56,0,0,1-1.95,8.45,11.85,11.85,0,0,1-5.4,4.94A18.73,18.73,0,0,1,751.27,375.79Z" transform="translate(-399.18 -334.54)"/><path d="M843.3,375.09V335.23h5.62v39.86Z" transform="translate(-399.18 -334.54)"/><path d="M923,375.09l13.93-39.86h7.23l13.93,39.86H952l-3-8.89H931.62l-3,8.89Zm10.16-13.54H947.4l-5.94-17.72c-.13-.46-.28-1-.44-1.74s-.37-1.59-.58-2.67h-.26q-.31,1.68-.54,2.73a10.78,10.78,0,0,1-.48,1.68Z" transform="translate(-399.18 -334.54)"/></svg>